 http://img717.imageshack.us/img717/4919/1104h.jpg

Country.......: USA
Genre.........: Action, Sci-Fi, Adventure
Date release..: 23.06.2011 [World]
Director......: Michael Bay
Writers.......: Ehren Kruger
Duration......: 146 min.
More..........: http://www.imdb.com/title/tt1399103
Trailer.......: http://www.imdb.com/video/imdb/vi543989017
Trailer.......:

Pilot :
The Autobots learn of a Cybertronian spacecraft hidden on the Moon, and race against the Decepticons to reach it and to learn its secrets. 

Cats :
Shia LaBeouf   	 ...  	Sam Witwicky
Josh Duhamel 	... 	Lennox
John Turturro 	... 	Simmons
Tyrese Gibson 	... 	Epps
Rosie Huntington Whiteley 	... 	Carly Spencer
Patrick Dempsey 	... 	Dylan
Rich Hutchman 	... 	Engineer
Frances McDormand 	... 	Mearing
Kevin Dunn 	... 	Ron Witwicky
John Malkovich 	... 	Bruce Brazos
Julie White 	... 	Judy Witwicky
Alan Tudyk 	... 	Dutch
Ken Jeong 	... 	Jerry Wang
Glenn Morshower 	... 	General Morshower
Buzz Aldrin 	... 	Buzz Aldrin 

Data Technical :
!!! SAMPLE !!!
Audio.....: English
Subtitles.: None
Format                           : AVI
Format/Info                      : Audio Video Interleave
File size                        : 1.97 GiB
Duration                         : 2h 25mn
Overall bit rate                 : 1 930 Kbps
Writing library                  : VirtualDub build 32706/release
Video
ID                               : 0
Format                           : MPEG-4 Visual
Format profile                   : Advanced Simple@L5
Format settings, BVOP            : Yes
Format settings, QPel            : No
Format settings, GMC             : No warppoints
Format settings, Matrix          : Default (MPEG)
Muxing mode                      : Packed bitstream
Codec ID                         : XVID
Codec ID/Hint                    : XviD
Duration                         : 2h 25mn
Bit rate                         : 1 792 Kbps
Width                            : 720 pixels
Height                           : 288 pixels
Display aspect ratio             : 2.500
Frame rate                       : 23.976 fps
Color space                      : YUV
Chroma subsampling               : 4:2:0
Bit depth                        : 8 bits
Scan type                        : Progressive
Bits/(Pixel*Frame)               : 0.360
Stream size                      : 1.83 GiB (93%)
Writing library                  : XviD 1.2.1 (UTC 2008-12-04)
Audio
ID                               : 1
Format                           : MPEG Audio
Format version                   : Version 1
Format profile                   : Layer 3
Codec ID                         : 55
Codec ID/Hint                    : MP3
Duration                         : 2h 25mn
Bit rate mode                    : Constant
Bit rate                         : 128 Kbps
Channel(s)                       : 2 channels
Sampling rate                    : 44.1 KHz
Video delay                      : 9ms
Stream size                      : 134 MiB (7%)
Alignment                        : Split accross interleaves
Interleave, duration             : 42 ms (1.00 video frame)

Screen : 
http://img268.imageshack.us/img268/280/transformers3darkoftheml.jpg 
http://img851.imageshack.us/img851/280/transformers3darkoftheml.jpg 
http://img231.imageshack.us/img231/9000/transformers3darkofthemt.jpg 
http://img228.imageshack.us/img228/904/transformers3darkofthemz.jpg 
http://img42.imageshack.us/img42/5589/transformers3darkofthem.jpg